<svg viewBox="0 0 12 12" width="60px" height="60px" xmlns="http://www.w3.org/2000/svg"><path fill-rule="evenodd" d="M 1,0 11,0 11,2 12,2 12,5 11,5 11,8 12,8 12,11 11,11 11,12 7,12 7,11 5,11 5,12 1,12 1,11 0,11 0,8 1,8 1,5 0,5 0,2 1,2z M 5,4 7,4 7,6 5,6z" fill="#BD6BBD"/><path fill-rule="evenodd" d="M 2,1 4,1 4,2 3,2 3,3 2,3z" fill="#ffffff"/><path fill-rule="evenodd" d="M 5,1 7,1 7,3 5,3z" fill="#ffffff"/><path fill-rule="evenodd" d="M 8,1 10,1 10,3 9,3 9,2 8,2z" fill="#ffffff"/><path fill-rule="evenodd" d="M 1,3 2,3 2,4 1,4z" fill="#ffffff"/><path fill-rule="evenodd" d="M 10,3 11,3 11,4 10,4z" fill="#ffffff"/><path fill-rule="evenodd" d="M 2,4 4,4 4,5 2,5z" fill="#ffffff"/><path fill-rule="evenodd" d="M 8,4 10,4 10,5 8,5z" fill="#ffffff"/><path fill-rule="evenodd" d="M 2,6 4,6 4,7 3,7 3,8 2,8z" fill="#ffffff"/><path fill-rule="evenodd" d="M 8,6 10,6 10,8 9,8 9,7 8,7z" fill="#ffffff"/><path fill-rule="evenodd" d="M 5,7 7,7 7,8 5,8z" fill="#ffffff"/><path fill-rule="evenodd" d="M 4,8 5,8 5,10 4,10z" fill="#ffffff"/><path fill-rule="evenodd" d="M 7,8 8,8 8,10 7,10z" fill="#ffffff"/><path fill-rule="evenodd" d="M 1,9 3,9 3,10 4,10 4,11 2,11 2,10 1,10z" fill="#ffffff"/><path fill-rule="evenodd" d="M 9,9 11,9 11,10 10,10 10,11 8,11 8,10 9,10z" fill="#ffffff"/></svg>